# xmcd
#
# Track frame offsets:
# 150
# 14607
# 28972
# 43017
# 58997
# 73795
# 88855
# 112395
# 132380
# 152197
# 166305
# 179697
#
# Disc length: 2610 seconds
#
# Revision: 0
# Processed by: cddbd v1.5.1PL0 Copyright (c) Steve Scherf et al.
# Submitted via: Audion 3.0.2 (http://www.panic.com/audion/)
#
DISCID=bc0a300c
DTITLE=Mare Winningham - Lonesomers
DYEAR=1900
DGENRE=
TTITLE0=Miles
TTITLE1=Big Dirt Bed
TTITLE2=This Tower
TTITLE3=The Last Time
TTITLE4=Are You Smiling?
TTITLE5=Someday Soon
TTITLE6=Lonesomers
TTITLE7=Silver Bullets
TTITLE8=Quietly Tonight
TTITLE9=Wake Up
TTITLE10=World That I Love
TTITLE11=It's So Hard
EXTD=
EXTT0=
EXTT1=
EXTT2=
EXTT3=
EXTT4=
EXTT5=
EXTT6=
EXTT7=
EXTT8=
EXTT9=
EXTT10=
EXTT11=
PLAYORDER=
